<svg xmlns="http://www.w3.org/2000/svg" viewBox="0 0 520 460" fill="none" xmlns:c2pa="http://c2pa.org/manifest"><style>
.spin{transform-origin:260px 210px;animation:spin 60s linear infinite}
.spin-r{transform-origin:260px 210px;animation:spin 80s linear infinite reverse}
.orbit{transform-origin:260px 210px;animation:spin 48s linear infinite}
.node{transform-box:fill-box;transform-origin:center;animation:spin 48s linear infinite reverse}
.node-glow{transform-box:fill-box;transform-origin:center;animation:glow 4s ease-in-out infinite}
.sweep{transform-origin:260px 210px;animation:spin 6s linear infinite}
.ripple{transform-box:fill-box;transform-origin:center;opacity:0;animation:ripple 5s ease-out infinite}
.ripple.b{animation-delay:1.66s}.ripple.c{animation-delay:3.33s}
.shield{transform-box:fill-box;transform-origin:center;animation:breathe 3.4s ease-in-out infinite}
.wave{transform-box:fill-box;transform-origin:center;animation:wave 2.6s ease-in-out infinite alternate}
.blip{animation:blink 2.4s ease-in-out infinite}
@keyframes spin{to{transform:rotate(360deg)}}
@keyframes ripple{0%{transform:scale(.45);opacity:.6}100%{transform:scale(2.6);opacity:0}}
@keyframes breathe{0%,100%{transform:scale(1)}50%{transform:scale(1.05)}}
@keyframes glow{0%,100%{opacity:.8}50%{opacity:1}}
@keyframes wave{from{transform:scaleY(.55)}to{transform:scaleY(1.15)}}
@keyframes blink{0%,100%{opacity:.35}50%{opacity:1}}
@media (prefers-reduced-motion:reduce){*{animation:none!important}}
</style><metadata><c2pa:manifest>AAAWgmp1bWIAAAAeanVtZGMycGEAEQAQgAAAqgA4m3EDYzJwYQAAABZcanVtYgAAAEdqdW1kYzJtYQARABCAAACqADibcQN1cm46YzJwYTpiZWM0NzE5NC0zNzBiLTQ2OGUtYmNmOS0zZDEzYmQ0NmM4ZDMAAAADl2p1bWIAAAApanVtZGMyYXMAEQAQgAAAqgA4m3EDYzJwYS5hc3NlcnRpb25zAAAAALxqdW1iAAAARGp1bWRjYm9yABEAEIAAAKoAOJtxE2MycGEuaW5ncmVkaWVudC52MwAAAAAYYzJzaCU60M0d2nYxwpHtk9pvIqcAAABwY2JvcqNpZGM6Zm9ybWF0bWltYWdlL3N2Zyt4bWxqaW5zdGFuY2VJRHgseG1wOmlpZDpkZDdmNWYwNS04M2U3LTQyZDItOTkzYi00ODgwM2E2MWRjMjhscmVsYXRpb25zaGlwaHBhcmVudE9mAAAB4mp1bWIAAABBanVtZGNib3IAEQAQgAAAqgA4m3ETYzJwYS5hY3Rpb25zLnYyAAAAABhjMnNo1WzUJvKnQx3AZ5oz/ilb7gAAAZljYm9yomdhY3Rpb25zgqJmYWN0aW9ua2MycGEub3BlbmVkanBhcmFtZXRlcnOha2luZ3JlZGllbnRzgaJjdXJseC1zZWxmI2p1bWJmPWMycGEuYXNzZXJ0aW9ucy9jMnBhLmluZ3JlZGllbnQudjNkaGFzaFggOjdArZMDRysMynyjg1CE21vWX151ML7qS4C/PKWC5zOkZmFjdGlvbngdY29tLmFudGhyb3BpYy5jbGF1ZGUucHJvdmlkZWRqcGFyYW1ldGVyc6F4H2NvbS5hbnRocm9waWMub3JpZ2luLWNvbmZpZGVuY2VndW5rbm93bmtkZXNjcmlwdGlvbnhmQ2xhdWRlIHByb3ZpZGVkIHRoaXMgZmlsZSBhdCB0aGUgcmVxdWVzdCBvZiBhIHVzZXIgYW5kIG1heSBoYXZlIGNyZWF0ZWQgb3IgbW9kaWZpZWQgdGhlIGZpbGUgY29udGVudHMubXNvZnR3YXJlQWdlbnShZG5hbWVmQ2xhdWRlcmFsbEFjdGlvbnNJbmNsdWRlZPUAAADIanVtYgAAAEBqdW1kY2JvcgARABCAAACqADibcRNjMnBhLmhhc2guZGF0YQAAAAAYYzJzaOTrf5nLK7Ch0ZRUNjHN+LMAAACAY2JvcqVjYWxnZnNoYTI1NmNwYWRMAAAAAAAAAAAAAAAAZGhhc2hYIMQn7602NvtRgtFK1dG8oZ9fmZN1Q9f+WXeD63R90U/XZG5hbWVuanVtYmYgbWFuaWZlc3RqZXhjbHVzaW9uc4GiZXN0YXJ0GQXwZmxlbmd0aBkeBAAAAj5qdW1iAAAAJ2p1bWRjMmNsABEAEIAAAKoAOJtxA2MycGEuY2xhaW0udjIAAAACD2Nib3KlY2FsZ2ZzaGEyNTZpc2lnbmF0dXJleE1zZWxmI2p1bWJmPS9jMnBhL3VybjpjMnBhOmJlYzQ3MTk0LTM3MGItNDY4ZS1iY2Y5LTNkMTNiZDQ2YzhkMy9jMnBhLnNpZ25hdHVyZWppbnN0YW5jZUlEeCx4bXA6aWlkOjk3Nzk5YjZjLTI5ZTgtNGE4MS05NjlmLTQ2ODRhOTJlMjBmZnJjcmVhdGVkX2Fzc2VydGlvbnODomN1cmx4LXNlbGYjanVtYmY9YzJwYS5hc3NlcnRpb25zL2MycGEuaW5ncmVkaWVudC52M2RoYXNoWCA6N0CtkwNHKwzKfKODUITbW9ZfXnUwvupLgL88pYLnM6JjdXJseCpzZWxmI2p1bWJmPWMycGEuYXNzZXJ0aW9ucy9jMnBhLmFjdGlvbnMudjJkaGFzaFggWSz4M/fkHEpUIsccYc340c6vylMqPkJHlYuCE5RIbPaiY3VybHgpc2VsZiNqdW1iZj1jMnBhLmFzc2VydGlvbnMvYzJwYS5oYXNoLmRhdGFkaGFzaFgg5cmCHoACjaPINNIUIL4F/ZKpft51bTQeD8rbte34kAx0Y2xhaW1fZ2VuZXJhdG9yX2luZm+jZG5hbWVvQW50aHJvcGljIEZpbGVzZ3ZlcnNpb25lMS4wLjBrc3BlY1ZlcnNpb25lMi40LjAAABA4anVtYgAAAChqdW1kYzJjcwARABCAAACqADibcQNjMnBhLnNpZ25hdHVyZQAAABAIY2JvctKEWQISogEmGCFZAgowggIGMIIBjaADAgECAhRA5aAK7sI50L64g/oGQgU9Z1UTADAKBggqhkjOPQQDAzBJMRcwFQYDVQQKEw5BbnRocm9waWMsIFBCQzEuMCwGA1UEAxMlQW50aHJvcGljIENvbnRlbnQgQ3JlZGVudGlhbHMgUm9vdCBDQTAeFw0yNjA4MDcxODQzNTZaFw0yODA4MDYxOTQzNTZaMEQxFzAVBgNVBAoTDkFudGhyb3BpYywgUEJDMSkwJwYDVQQDEyBBbnRocm9waWMgQ2xhdWRlIENvbnRlbnQgU2lnbmluZzBZMBMGByqGSM49AgEGCCqGSM49AwEHA0IABJh6CmvLUBgFFNU0vUKlOVtE6djd17L5SuwX0LemFisBM3dkd/3cyjxFA3Qo5S46fX0/ihY0VZ7mfb9KF703t5OjWDBWMA4GA1UdDwEB/wQEAwIHgDAVBgNVHSUEDjAMBgorBgEEAYPoXgIBMAwGA1UdEwEB/wQCMAAwHwYDVR0jBBgwFoAUzlHiBIFOZFsj+OPEz5o+nMHXXMIwCgYIKoZIzj0EAwMDZwAwZAIwMXMdFJ4BetLLVY7ORuE9noqbbAZOZn/aArXyTwFAZfKrPzxF2vPoJNf1+UCdg1XGAjBwX1zd9WGqYkqmL5SFqw1QySjr1zJfpJM9+1rdDwSPLMOPOjKuiXjoU/pUUeG9RwmhY3BhZFkNngAAAAAAAAAAAAAAAAAAAAAAAAAAAAAAAAAAAAAAAAAAAAAAAAAAAAAAAAAAAAAAAAAAAAAAAAAAAAAAAAAAAAAAAAAAAAAAAAAAAAAAAAAAAAAAAAAAAAAAAAAAAAAAAAAAAAAAAAAAAAAAAAAAAAAAAAAAAAAAAAAAAAAAAAAAAAAAAAAAAAAAAAAAAAAAAAAAAAAAAAAAAAAAAAAAAAAAAAAAAAAAAAAAAAAAAAAAAAAAAAAAAAAAAAAAAAAAAAAAAAAAAAAAAAAAAAAAAAAAAAAAAAAAAAAAAAAAAAAAAAAAAAAAAAAAAAAAAAAAAAAAAAAAAAAAAAAAAAAAAAAAAAAAAAAAAAAAAAAAAAAAAAAAAAAAAAAAAAAAAAAAAAAAAAAAAAAAAAAAAAAAAAAAAAAAAAAAAAAAAAAAAAAAAAAAAAAAAAAAAAAAAAAAAAAAAAAAAAAAAAAAAAAAAAAAAAAAAAAAAAAAAAAAAAAAAAAAAAAAAAAAAAAAAAAAAAAAAAAAAAAAAAAAAAAAAAAAAAAAAAAAAAAAAAAAAAAAAAAAAAAAAAAAAAAAAAAAAAAAAAAAAAAAAAAAAAAAAAAAAAAAAAAAAAAAAAAAAAAAAAAAAAAAAAAAAAAAAAAAAAAAAAAAAAAAAAAAAAAAAAAAAAAAAAAAAAAAAAAAAAAAAAAAAAAAAAAAAAAAAAAAAAAAAAAAAAAAAAAAAAAAAAAAAAAAAAAAAAAAAAAAAAAAAAAAAAAAAAAAAAAAAAAAAAAAAAAAAAAAAAAAAAAAAAAAAAAAAAAAAAAAAAAAAAAAAAAAAAAAAAAAAAAAAAAAAAAAAAAAAAAAAAAAAAAAAAAAAAAAAAAAAAAAAAAAAAAAAAAAAAAAAAAAAAAAAAAAAAAAAAAAAAAAAAAAAAAAAAAAAAAAAAAAAAAAAAAAAAAAAAAAAAAAAAAAAAAAAAAAAAAAAAAAAAAAAAAAAAAAAAAAAAAAAAAAAAAAAAAAAAAAAAAAAAAAAAAAAAAAAAAAAAAAAAAAAAAAAAAAAAAAAAAAAAAAAAAAAAAAAAAAAAAAAAAAAAAAAAAAAAAAAAAAAAAAAAAAAAAAAAAAAAAAAAAAAAAAAAAAAAAAAAAAAAAAAAAAAAAAAAAAAAAAAAAAAAAAAAAAAAAAAAAAAAAAAAAAAAAAAAAAAAAAAAAAAAAAAAAAAAAAAAAAAAAAAAAAAAAAAAAAAAAAAAAAAAAAAAAAAAAAAAAAAAAAAAAAAAAAAAAAAAAAAAAAAAAAAAAAAAAAAAAAAAAAAAAAAAAAAAAAAAAAAAAAAAAAAAAAAAAAAAAAAAAAAAAAAAAAAAAAAAAAAAAAAAAAAAAAAAAAAAAAAAAAAAAAAAAAAAAAAAAAAAAAAAAAAAAAAAAAAAAAAAAAAAAAAAAAAAAAAAAAAAAAAAAAAAAAAAAAAAAAAAAAAAAAAAAAAAAAAAAAAAAAAAAAAAAAAAAAAAAAAAAAAAAAAAAAAAAAAAAAAAAAAAAAAAAAAAAAAAAAAAAAAAAAAAAAAAAAAAAAAAAAAAAAAAAAAAAAAAAAAAAAAAAAAAAAAAAAAAAAAAAAAAAAAAAAAAAAAAAAAAAAAAAAAAAAAAAAAAAAAAAAAAAAAAAAAAAAAAAAAAAAAAAAAAAAAAAAAAAAAAAAAAAAAAAAAAAAAAAAAAAAAAAAAAAAAAAAAAAAAAAAAAAAAAAAAAAAAAAAAAAAAAAAAAAAAAAAAAAAAAAAAAAAAAAAAAAAAAAAAAAAAAAAAAAAAAAAAAAAAAAAAAAAAAAAAAAAAAAAAAAAAAAAAAAAAAAAAAAAAAAAAAAAAAAAAAAAAAAAAAAAAAAAAAAAAAAAAAAAAAAAAAAAAAAAAAAAAAAAAAAAAAAAAAAAAAAAAAAAAAAAAAAAAAAAAAAAAAAAAAAAAAAAAAAAAAAAAAAAAAAAAAAAAAAAAAAAAAAAAAAAAAAAAAAAAAAAAAAAAAAAAAAAAAAAAAAAAAAAAAAAAAAAAAAAAAAAAAAAAAAAAAAAAAAAAAAAAAAAAAAAAAAAAAAAAAAAAAAAAAAAAAAAAAAAAAAAAAAAAAAAAAAAAAAAAAAAAAAAAAAAAAAAAAAAAAAAAAAAAAAAAAAAAAAAAAAAAAAAAAAAAAAAAAAAAAAAAAAAAAAAAAAAAAAAAAAAAAAAAAAAAAAAAAAAAAAAAAAAAAAAAAAAAAAAAAAAAAAAAAAAAAAAAAAAAAAAAAAAAAAAAAAAAAAAAAAAAAAAAAAAAAAAAAAAAAAAAAAAAAAAAAAAAAAAAAAAAAAAAAAAAAAAAAAAAAAAAAAAAAAAAAAAAAAAAAAAAAAAAAAAAAAAAAAAAAAAAAAAAAAAAAAAAAAAAAAAAAAAAAAAAAAAAAAAAAAAAAAAAAAAAAAAAAAAAAAAAAAAAAAAAAAAAAAAAAAAAAAAAAAAAAAAAAAAAAAAAAAAAAAAAAAAAAAAAAAAAAAAAAAAAAAAAAAAAAAAAAAAAAAAAAAAAAAAAAAAAAAAAAAAAAAAAAAAAAAAAAAAAAAAAAAAAAAAAAAAAAAAAAAAAAAAAAAAAAAAAAAAAAAAAAAAAAAAAAAAAAAAAAAAAAAAAAAAAAAAAAAAAAAAAAAAAAAAAAAAAAAAAAAAAAAAAAAAAAAAAAAAAAAAAAAAAAAAAAAAAAAAAAAAAAAAAAAAAAAAAAAAAAAAAAAAAAAAAAAAAAAAAAAAAAAAAAAAAAAAAAAAAAAAAAAAAAAAAAAAAAAAAAAAAAAAAAAAAAAAAAAAAAAAAAAAAAAAAAAAAAAAAAAAAAAAAAAAAAAAAAAAAAAAAAAAAAAAAAAAAAAAAAAAAAAAAAAAAAAAAAAAAAAAAAAAAAAAAAAAAAAAAAAAAAAAAAAAAAAAAAAAAAAAAAAAAAAAAAAAAAAAAAAAAAAAAAAAAAAAAAAAAAAAAAAAAAAAAAAAAAAAAAAAAAAAAAAAAAAAAAAAAAAAAAAAAAAAAAAAAAAAAAAAAAAAAAAAAAAAAAAAAAAAAAAAAAAAAAAAAAAAAAAAAAAAAAAAAAAAAAAAAAAAAAAAAAAAAAAAAAAAAAAAAAAAAAAAAAAAAAAAAAAAAAAAAAAAAAAAAAAAAAAAAAAAAAAAAAAAAAAAAAAAAAAAAAAAAAAAAAAAAAAAAAAAAAAAAAAAAAAAAAAAAAAAAAAAAAAAAAAAAAAAAAAAAAAAAAAAAAAAAAAAAAAAAAAAAAAAAAAAAAAAAAAAAAAAAAAAAAAAAAAAAAAAAAAAAAAAAAAAAAAAAAAAAAAAAAAAAAAAAAAAAAAAAAAAAAAAAAAAAAAAAAAAAAAAAAAAAAAAAAAAAAAAAAAAAAAAAAAAAAAAAAAAAAAAAAAAAAAAAAAAAAAAAAAAAAAAAAAAAAAAAAAAAAAAAAAAAAAAAAAAAAAAAAAAAAAAAAAAAAAAAAAAAAAAAAAAAAAAAAAAAAAAAAAAAAAAAAAAAAAAAAAAAAAAAAAAAAAAAAAAAAAAAAAAAAAAAAAAAAAAAAAAAAAAAAAAAAAAAAAAAAAAAAAAAAAAAAAAAAAAAAAAAAAAAAAAAAAAAAAAAAAAAAAAAAAAAAAAAAAAAAAAAAAAAAAAAAAAAAAAAAAAAAAAAAAAAAAAAAAAAAAAAAAAAAAAAAAAAAAAAAAAAAAAAAAAAAAAAAAAAAAAAAAAAAAAAAAAAAAAAAAAAAAAAAAAAAAAAAAAAAAAAAAAAAAAAAAAAAAAAAAAAAAAAAAAAAAAAAAAAAAAAAAAAAAAAAAAAAAAAAAAAAAAAAAAAAAAAAAAAAAAAAAAAAAAAAAAAAAAAAAAAAAAAAAAAAAAAAAAAAAAAAAAAAAAAAAAAAAAAAAAAAAAAAAAAAAAAAAAAAAAAAAAAAAAAAAAAAAAAAAAAAAAAAAAAAAAAAAAAAAAAAAAAAAAAAAAAAAAAAAAAAAAAAAAAAAAAAAAAAAAAAAAAAAAAAAAAAAAAAAAAAAAAAAAAAAAAAAAAAAAAAAAAAAAAAAAAAAAAAAAAAAAAAAAAAAAAAAAAAAAAAAAAAAAAAAAAAAAAAAAAAAAAAAAAAAAAAAAAAAAAAAAAAAAAAAAAAAAAAAAAAAAAAAAAAAAAAAAAAAAAAAAAAAAAAAAAAAAAAAAAAAAAAAAAAAAAAAAAAAAAAAAAAAAAAAAAAAAAAAAAAAAAAAAAAAAAAAAAAAAAAAAAAAAAAAAAAAAAAAAAAAAAAAAAAAAAAAAAAAAAAAAAAAAAAAAAAAAAAAAAAAAAAAAAAAAAAAAAAAAAAAAAAAAAAAAAAAAAAAAAAAAAAAAAAAAAAAAAAAAAAAAAAAAAAAAAAAAAAAAAAAAAAAAAAAAAAAAAAAAAAAAAAAAAAAAAAAAAAAAAAAAAAAAAAAAAAAAAAAAAAAAAAAAAAAAAAAAAAAAAAAAAAAAAAAAAAAAAAAAAAAAAAAAAAAAAAAAAAAAAAAAAAAAAAAAAAAAAAAAAAAAAAAAAAAAAAAAAAAAAAAAAAAAAAAAAAAAAAAAAAAAAAAAAAAAAAAAAAAAAAAAAAAAAAAAAAAAAAAAAAAAAAAAAAAAAAAAAAAAAAAAAAAAAAAAAAAAAAAAAAAAAAAAAAAAAAAAAAAAAAAAAAAAAAAAAPZYQGofJe8TgfjR44utqJv1hNLemyU+81CVoN0DRp+j5StudCuhwrYa+9Wv3XEF7UaDcxz9TB3eBwO8ckJ2tJRH+xY=</c2pa:manifest></metadata>
<defs><radialGradient id="g2" cx=".5" cy=".5" r=".5"><stop offset="0" stop-color="#B9A3D9" stop-opacity=".5"/><stop offset="1" stop-color="#B9A3D9" stop-opacity="0"/></radialGradient>
<linearGradient id="sh2" x1="0" x2="1" y1="0" y2="1"><stop offset="0" stop-color="#D4C4E8"/><stop offset="1" stop-color="#9D84C4"/></linearGradient>
<linearGradient id="wv" x1="0" x2="1"><stop offset="0" stop-color="#D4C4E8" stop-opacity="0"/><stop offset=".5" stop-color="#D4C4E8"/><stop offset="1" stop-color="#D4C4E8" stop-opacity="0"/></linearGradient><linearGradient id="sw" x1="0" y1="0" x2="1" y2="0"><stop offset="0" stop-color="#D4C4E8" stop-opacity="0"/><stop offset="1" stop-color="#D4C4E8" stop-opacity=".4"/></linearGradient></defs>
<circle cx="20" cy="20" r="1" fill="#D4C4E8" fill-opacity=".12"/>
<circle cx="20" cy="48" r="1" fill="#D4C4E8" fill-opacity=".12"/>
<circle cx="20" cy="76" r="1" fill="#D4C4E8" fill-opacity=".12"/>
<circle cx="20" cy="104" r="1" fill="#D4C4E8" fill-opacity=".12"/>
<circle cx="20" cy="132" r="1" fill="#D4C4E8" fill-opacity=".12"/>
<circle cx="20" cy="160" r="1" fill="#D4C4E8" fill-opacity=".12"/>
<circle cx="20" cy="188" r="1" fill="#D4C4E8" fill-opacity=".12"/>
<circle cx="20" cy="216" r="1" fill="#D4C4E8" fill-opacity=".12"/>
<circle cx="20" cy="244" r="1" fill="#D4C4E8" fill-opacity=".12"/>
<circle cx="20" cy="272" r="1" fill="#D4C4E8" fill-opacity=".12"/>
<circle cx="20" cy="300" r="1" fill="#D4C4E8" fill-opacity=".12"/>
<circle cx="20" cy="328" r="1" fill="#D4C4E8" fill-opacity=".12"/>
<circle cx="20" cy="356" r="1" fill="#D4C4E8" fill-opacity=".12"/>
<circle cx="20" cy="384" r="1" fill="#D4C4E8" fill-opacity=".12"/>
<circle cx="20" cy="412" r="1" fill="#D4C4E8" fill-opacity=".12"/>
<circle cx="20" cy="440" r="1" fill="#D4C4E8" fill-opacity=".12"/>
<circle cx="48" cy="20" r="1" fill="#D4C4E8" fill-opacity=".12"/>
<circle cx="48" cy="48" r="1" fill="#D4C4E8" fill-opacity=".12"/>
<circle cx="48" cy="76" r="1" fill="#D4C4E8" fill-opacity=".12"/>
<circle cx="48" cy="104" r="1" fill="#D4C4E8" fill-opacity=".12"/>
<circle cx="48" cy="132" r="1" fill="#D4C4E8" fill-opacity=".12"/>
<circle cx="48" cy="160" r="1" fill="#D4C4E8" fill-opacity=".12"/>
<circle cx="48" cy="188" r="1" fill="#D4C4E8" fill-opacity=".12"/>
<circle cx="48" cy="216" r="1" fill="#D4C4E8" fill-opacity=".12"/>
<circle cx="48" cy="244" r="1" fill="#D4C4E8" fill-opacity=".12"/>
<circle cx="48" cy="272" r="1" fill="#D4C4E8" fill-opacity=".12"/>
<circle cx="48" cy="300" r="1" fill="#D4C4E8" fill-opacity=".12"/>
<circle cx="48" cy="328" r="1" fill="#D4C4E8" fill-opacity=".12"/>
<circle cx="48" cy="356" r="1" fill="#D4C4E8" fill-opacity=".12"/>
<circle cx="48" cy="384" r="1" fill="#D4C4E8" fill-opacity=".12"/>
<circle cx="48" cy="412" r="1" fill="#D4C4E8" fill-opacity=".12"/>
<circle cx="48" cy="440" r="1" fill="#D4C4E8" fill-opacity=".12"/>
<circle cx="76" cy="20" r="1" fill="#D4C4E8" fill-opacity=".12"/>
<circle cx="76" cy="48" r="1" fill="#D4C4E8" fill-opacity=".12"/>
<circle cx="76" cy="76" r="1" fill="#D4C4E8" fill-opacity=".12"/>
<circle cx="76" cy="104" r="1" fill="#D4C4E8" fill-opacity=".12"/>
<circle cx="76" cy="132" r="1" fill="#D4C4E8" fill-opacity=".12"/>
<circle cx="76" cy="160" r="1" fill="#D4C4E8" fill-opacity=".12"/>
<circle cx="76" cy="188" r="1" fill="#D4C4E8" fill-opacity=".12"/>
<circle cx="76" cy="216" r="1" fill="#D4C4E8" fill-opacity=".12"/>
<circle cx="76" cy="244" r="1" fill="#D4C4E8" fill-opacity=".12"/>
<circle cx="76" cy="272" r="1" fill="#D4C4E8" fill-opacity=".12"/>
<circle cx="76" cy="300" r="1" fill="#D4C4E8" fill-opacity=".12"/>
<circle cx="76" cy="328" r="1" fill="#D4C4E8" fill-opacity=".12"/>
<circle cx="76" cy="356" r="1" fill="#D4C4E8" fill-opacity=".12"/>
<circle cx="76" cy="384" r="1" fill="#D4C4E8" fill-opacity=".12"/>
<circle cx="76" cy="412" r="1" fill="#D4C4E8" fill-opacity=".12"/>
<circle cx="76" cy="440" r="1" fill="#D4C4E8" fill-opacity=".12"/>
<circle cx="104" cy="20" r="1" fill="#D4C4E8" fill-opacity=".12"/>
<circle cx="104" cy="48" r="1" fill="#D4C4E8" fill-opacity=".12"/>
<circle cx="104" cy="76" r="1" fill="#D4C4E8" fill-opacity=".12"/>
<circle cx="104" cy="104" r="1" fill="#D4C4E8" fill-opacity=".12"/>
<circle cx="104" cy="132" r="1" fill="#D4C4E8" fill-opacity=".12"/>
<circle cx="104" cy="160" r="1" fill="#D4C4E8" fill-opacity=".12"/>
<circle cx="104" cy="188" r="1" fill="#D4C4E8" fill-opacity=".12"/>
<circle cx="104" cy="216" r="1" fill="#D4C4E8" fill-opacity=".12"/>
<circle cx="104" cy="244" r="1" fill="#D4C4E8" fill-opacity=".12"/>
<circle cx="104" cy="272" r="1" fill="#D4C4E8" fill-opacity=".12"/>
<circle cx="104" cy="300" r="1" fill="#D4C4E8" fill-opacity=".12"/>
<circle cx="104" cy="328" r="1" fill="#D4C4E8" fill-opacity=".12"/>
<circle cx="104" cy="356" r="1" fill="#D4C4E8" fill-opacity=".12"/>
<circle cx="104" cy="384" r="1" fill="#D4C4E8" fill-opacity=".12"/>
<circle cx="104" cy="412" r="1" fill="#D4C4E8" fill-opacity=".12"/>
<circle cx="104" cy="440" r="1" fill="#D4C4E8" fill-opacity=".12"/>
<circle cx="132" cy="20" r="1" fill="#D4C4E8" fill-opacity=".12"/>
<circle cx="132" cy="48" r="1" fill="#D4C4E8" fill-opacity=".12"/>
<circle cx="132" cy="76" r="1" fill="#D4C4E8" fill-opacity=".12"/>
<circle cx="132" cy="104" r="1" fill="#D4C4E8" fill-opacity=".12"/>
<circle cx="132" cy="132" r="1" fill="#D4C4E8" fill-opacity=".12"/>
<circle cx="132" cy="160" r="1" fill="#D4C4E8" fill-opacity=".12"/>
<circle cx="132" cy="188" r="1" fill="#D4C4E8" fill-opacity=".12"/>
<circle cx="132" cy="216" r="1" fill="#D4C4E8" fill-opacity=".12"/>
<circle cx="132" cy="244" r="1" fill="#D4C4E8" fill-opacity=".12"/>
<circle cx="132" cy="272" r="1" fill="#D4C4E8" fill-opacity=".12"/>
<circle cx="132" cy="300" r="1" fill="#D4C4E8" fill-opacity=".12"/>
<circle cx="132" cy="328" r="1" fill="#D4C4E8" fill-opacity=".12"/>
<circle cx="132" cy="356" r="1" fill="#D4C4E8" fill-opacity=".12"/>
<circle cx="132" cy="384" r="1" fill="#D4C4E8" fill-opacity=".12"/>
<circle cx="132" cy="412" r="1" fill="#D4C4E8" fill-opacity=".12"/>
<circle cx="132" cy="440" r="1" fill="#D4C4E8" fill-opacity=".12"/>
<circle cx="160" cy="20" r="1" fill="#D4C4E8" fill-opacity=".12"/>
<circle cx="160" cy="48" r="1" fill="#D4C4E8" fill-opacity=".12"/>
<circle cx="160" cy="76" r="1" fill="#D4C4E8" fill-opacity=".12"/>
<circle cx="160" cy="104" r="1" fill="#D4C4E8" fill-opacity=".12"/>
<circle cx="160" cy="132" r="1" fill="#D4C4E8" fill-opacity=".12"/>
<circle cx="160" cy="160" r="1" fill="#D4C4E8" fill-opacity=".12"/>
<circle cx="160" cy="188" r="1" fill="#D4C4E8" fill-opacity=".12"/>
<circle cx="160" cy="216" r="1" fill="#D4C4E8" fill-opacity=".12"/>
<circle cx="160" cy="244" r="1" fill="#D4C4E8" fill-opacity=".12"/>
<circle cx="160" cy="272" r="1" fill="#D4C4E8" fill-opacity=".12"/>
<circle cx="160" cy="300" r="1" fill="#D4C4E8" fill-opacity=".12"/>
<circle cx="160" cy="328" r="1" fill="#D4C4E8" fill-opacity=".12"/>
<circle cx="160" cy="356" r="1" fill="#D4C4E8" fill-opacity=".12"/>
<circle cx="160" cy="384" r="1" fill="#D4C4E8" fill-opacity=".12"/>
<circle cx="160" cy="412" r="1" fill="#D4C4E8" fill-opacity=".12"/>
<circle cx="160" cy="440" r="1" fill="#D4C4E8" fill-opacity=".12"/>
<circle cx="188" cy="20" r="1" fill="#D4C4E8" fill-opacity=".12"/>
<circle cx="188" cy="48" r="1" fill="#D4C4E8" fill-opacity=".12"/>
<circle cx="188" cy="76" r="1" fill="#D4C4E8" fill-opacity=".12"/>
<circle cx="188" cy="104" r="1" fill="#D4C4E8" fill-opacity=".12"/>
<circle cx="188" cy="132" r="1" fill="#D4C4E8" fill-opacity=".12"/>
<circle cx="188" cy="160" r="1" fill="#D4C4E8" fill-opacity=".12"/>
<circle cx="188" cy="188" r="1" fill="#D4C4E8" fill-opacity=".12"/>
<circle cx="188" cy="216" r="1" fill="#D4C4E8" fill-opacity=".12"/>
<circle cx="188" cy="244" r="1" fill="#D4C4E8" fill-opacity=".12"/>
<circle cx="188" cy="272" r="1" fill="#D4C4E8" fill-opacity=".12"/>
<circle cx="188" cy="300" r="1" fill="#D4C4E8" fill-opacity=".12"/>
<circle cx="188" cy="328" r="1" fill="#D4C4E8" fill-opacity=".12"/>
<circle cx="188" cy="356" r="1" fill="#D4C4E8" fill-opacity=".12"/>
<circle cx="188" cy="384" r="1" fill="#D4C4E8" fill-opacity=".12"/>
<circle cx="188" cy="412" r="1" fill="#D4C4E8" fill-opacity=".12"/>
<circle cx="188" cy="440" r="1" fill="#D4C4E8" fill-opacity=".12"/>
<circle cx="216" cy="20" r="1" fill="#D4C4E8" fill-opacity=".12"/>
<circle cx="216" cy="48" r="1" fill="#D4C4E8" fill-opacity=".12"/>
<circle cx="216" cy="76" r="1" fill="#D4C4E8" fill-opacity=".12"/>
<circle cx="216" cy="104" r="1" fill="#D4C4E8" fill-opacity=".12"/>
<circle cx="216" cy="132" r="1" fill="#D4C4E8" fill-opacity=".12"/>
<circle cx="216" cy="160" r="1" fill="#D4C4E8" fill-opacity=".12"/>
<circle cx="216" cy="188" r="1" fill="#D4C4E8" fill-opacity=".12"/>
<circle cx="216" cy="216" r="1" fill="#D4C4E8" fill-opacity=".12"/>
<circle cx="216" cy="244" r="1" fill="#D4C4E8" fill-opacity=".12"/>
<circle cx="216" cy="272" r="1" fill="#D4C4E8" fill-opacity=".12"/>
<circle cx="216" cy="300" r="1" fill="#D4C4E8" fill-opacity=".12"/>
<circle cx="216" cy="328" r="1" fill="#D4C4E8" fill-opacity=".12"/>
<circle cx="216" cy="356" r="1" fill="#D4C4E8" fill-opacity=".12"/>
<circle cx="216" cy="384" r="1" fill="#D4C4E8" fill-opacity=".12"/>
<circle cx="216" cy="412" r="1" fill="#D4C4E8" fill-opacity=".12"/>
<circle cx="216" cy="440" r="1" fill="#D4C4E8" fill-opacity=".12"/>
<circle cx="244" cy="20" r="1" fill="#D4C4E8" fill-opacity=".12"/>
<circle cx="244" cy="48" r="1" fill="#D4C4E8" fill-opacity=".12"/>
<circle cx="244" cy="76" r="1" fill="#D4C4E8" fill-opacity=".12"/>
<circle cx="244" cy="104" r="1" fill="#D4C4E8" fill-opacity=".12"/>
<circle cx="244" cy="132" r="1" fill="#D4C4E8" fill-opacity=".12"/>
<circle cx="244" cy="160" r="1" fill="#D4C4E8" fill-opacity=".12"/>
<circle cx="244" cy="188" r="1" fill="#D4C4E8" fill-opacity=".12"/>
<circle cx="244" cy="216" r="1" fill="#D4C4E8" fill-opacity=".12"/>
<circle cx="244" cy="244" r="1" fill="#D4C4E8" fill-opacity=".12"/>
<circle cx="244" cy="272" r="1" fill="#D4C4E8" fill-opacity=".12"/>
<circle cx="244" cy="300" r="1" fill="#D4C4E8" fill-opacity=".12"/>
<circle cx="244" cy="328" r="1" fill="#D4C4E8" fill-opacity=".12"/>
<circle cx="244" cy="356" r="1" fill="#D4C4E8" fill-opacity=".12"/>
<circle cx="244" cy="384" r="1" fill="#D4C4E8" fill-opacity=".12"/>
<circle cx="244" cy="412" r="1" fill="#D4C4E8" fill-opacity=".12"/>
<circle cx="244" cy="440" r="1" fill="#D4C4E8" fill-opacity=".12"/>
<circle cx="272" cy="20" r="1" fill="#D4C4E8" fill-opacity=".12"/>
<circle cx="272" cy="48" r="1" fill="#D4C4E8" fill-opacity=".12"/>
<circle cx="272" cy="76" r="1" fill="#D4C4E8" fill-opacity=".12"/>
<circle cx="272" cy="104" r="1" fill="#D4C4E8" fill-opacity=".12"/>
<circle cx="272" cy="132" r="1" fill="#D4C4E8" fill-opacity=".12"/>
<circle cx="272" cy="160" r="1" fill="#D4C4E8" fill-opacity=".12"/>
<circle cx="272" cy="188" r="1" fill="#D4C4E8" fill-opacity=".12"/>
<circle cx="272" cy="216" r="1" fill="#D4C4E8" fill-opacity=".12"/>
<circle cx="272" cy="244" r="1" fill="#D4C4E8" fill-opacity=".12"/>
<circle cx="272" cy="272" r="1" fill="#D4C4E8" fill-opacity=".12"/>
<circle cx="272" cy="300" r="1" fill="#D4C4E8" fill-opacity=".12"/>
<circle cx="272" cy="328" r="1" fill="#D4C4E8" fill-opacity=".12"/>
<circle cx="272" cy="356" r="1" fill="#D4C4E8" fill-opacity=".12"/>
<circle cx="272" cy="384" r="1" fill="#D4C4E8" fill-opacity=".12"/>
<circle cx="272" cy="412" r="1" fill="#D4C4E8" fill-opacity=".12"/>
<circle cx="272" cy="440" r="1" fill="#D4C4E8" fill-opacity=".12"/>
<circle cx="300" cy="20" r="1" fill="#D4C4E8" fill-opacity=".12"/>
<circle cx="300" cy="48" r="1" fill="#D4C4E8" fill-opacity=".12"/>
<circle cx="300" cy="76" r="1" fill="#D4C4E8" fill-opacity=".12"/>
<circle cx="300" cy="104" r="1" fill="#D4C4E8" fill-opacity=".12"/>
<circle cx="300" cy="132" r="1" fill="#D4C4E8" fill-opacity=".12"/>
<circle cx="300" cy="160" r="1" fill="#D4C4E8" fill-opacity=".12"/>
<circle cx="300" cy="188" r="1" fill="#D4C4E8" fill-opacity=".12"/>
<circle cx="300" cy="216" r="1" fill="#D4C4E8" fill-opacity=".12"/>
<circle cx="300" cy="244" r="1" fill="#D4C4E8" fill-opacity=".12"/>
<circle cx="300" cy="272" r="1" fill="#D4C4E8" fill-opacity=".12"/>
<circle cx="300" cy="300" r="1" fill="#D4C4E8" fill-opacity=".12"/>
<circle cx="300" cy="328" r="1" fill="#D4C4E8" fill-opacity=".12"/>
<circle cx="300" cy="356" r="1" fill="#D4C4E8" fill-opacity=".12"/>
<circle cx="300" cy="384" r="1" fill="#D4C4E8" fill-opacity=".12"/>
<circle cx="300" cy="412" r="1" fill="#D4C4E8" fill-opacity=".12"/>
<circle cx="300" cy="440" r="1" fill="#D4C4E8" fill-opacity=".12"/>
<circle cx="328" cy="20" r="1" fill="#D4C4E8" fill-opacity=".12"/>
<circle cx="328" cy="48" r="1" fill="#D4C4E8" fill-opacity=".12"/>
<circle cx="328" cy="76" r="1" fill="#D4C4E8" fill-opacity=".12"/>
<circle cx="328" cy="104" r="1" fill="#D4C4E8" fill-opacity=".12"/>
<circle cx="328" cy="132" r="1" fill="#D4C4E8" fill-opacity=".12"/>
<circle cx="328" cy="160" r="1" fill="#D4C4E8" fill-opacity=".12"/>
<circle cx="328" cy="188" r="1" fill="#D4C4E8" fill-opacity=".12"/>
<circle cx="328" cy="216" r="1" fill="#D4C4E8" fill-opacity=".12"/>
<circle cx="328" cy="244" r="1" fill="#D4C4E8" fill-opacity=".12"/>
<circle cx="328" cy="272" r="1" fill="#D4C4E8" fill-opacity=".12"/>
<circle cx="328" cy="300" r="1" fill="#D4C4E8" fill-opacity=".12"/>
<circle cx="328" cy="328" r="1" fill="#D4C4E8" fill-opacity=".12"/>
<circle cx="328" cy="356" r="1" fill="#D4C4E8" fill-opacity=".12"/>
<circle cx="328" cy="384" r="1" fill="#D4C4E8" fill-opacity=".12"/>
<circle cx="328" cy="412" r="1" fill="#D4C4E8" fill-opacity=".12"/>
<circle cx="328" cy="440" r="1" fill="#D4C4E8" fill-opacity=".12"/>
<circle cx="356" cy="20" r="1" fill="#D4C4E8" fill-opacity=".12"/>
<circle cx="356" cy="48" r="1" fill="#D4C4E8" fill-opacity=".12"/>
<circle cx="356" cy="76" r="1" fill="#D4C4E8" fill-opacity=".12"/>
<circle cx="356" cy="104" r="1" fill="#D4C4E8" fill-opacity=".12"/>
<circle cx="356" cy="132" r="1" fill="#D4C4E8" fill-opacity=".12"/>
<circle cx="356" cy="160" r="1" fill="#D4C4E8" fill-opacity=".12"/>
<circle cx="356" cy="188" r="1" fill="#D4C4E8" fill-opacity=".12"/>
<circle cx="356" cy="216" r="1" fill="#D4C4E8" fill-opacity=".12"/>
<circle cx="356" cy="244" r="1" fill="#D4C4E8" fill-opacity=".12"/>
<circle cx="356" cy="272" r="1" fill="#D4C4E8" fill-opacity=".12"/>
<circle cx="356" cy="300" r="1" fill="#D4C4E8" fill-opacity=".12"/>
<circle cx="356" cy="328" r="1" fill="#D4C4E8" fill-opacity=".12"/>
<circle cx="356" cy="356" r="1" fill="#D4C4E8" fill-opacity=".12"/>
<circle cx="356" cy="384" r="1" fill="#D4C4E8" fill-opacity=".12"/>
<circle cx="356" cy="412" r="1" fill="#D4C4E8" fill-opacity=".12"/>
<circle cx="356" cy="440" r="1" fill="#D4C4E8" fill-opacity=".12"/>
<circle cx="384" cy="20" r="1" fill="#D4C4E8" fill-opacity=".12"/>
<circle cx="384" cy="48" r="1" fill="#D4C4E8" fill-opacity=".12"/>
<circle cx="384" cy="76" r="1" fill="#D4C4E8" fill-opacity=".12"/>
<circle cx="384" cy="104" r="1" fill="#D4C4E8" fill-opacity=".12"/>
<circle cx="384" cy="132" r="1" fill="#D4C4E8" fill-opacity=".12"/>
<circle cx="384" cy="160" r="1" fill="#D4C4E8" fill-opacity=".12"/>
<circle cx="384" cy="188" r="1" fill="#D4C4E8" fill-opacity=".12"/>
<circle cx="384" cy="216" r="1" fill="#D4C4E8" fill-opacity=".12"/>
<circle cx="384" cy="244" r="1" fill="#D4C4E8" fill-opacity=".12"/>
<circle cx="384" cy="272" r="1" fill="#D4C4E8" fill-opacity=".12"/>
<circle cx="384" cy="300" r="1" fill="#D4C4E8" fill-opacity=".12"/>
<circle cx="384" cy="328" r="1" fill="#D4C4E8" fill-opacity=".12"/>
<circle cx="384" cy="356" r="1" fill="#D4C4E8" fill-opacity=".12"/>
<circle cx="384" cy="384" r="1" fill="#D4C4E8" fill-opacity=".12"/>
<circle cx="384" cy="412" r="1" fill="#D4C4E8" fill-opacity=".12"/>
<circle cx="384" cy="440" r="1" fill="#D4C4E8" fill-opacity=".12"/>
<circle cx="412" cy="20" r="1" fill="#D4C4E8" fill-opacity=".12"/>
<circle cx="412" cy="48" r="1" fill="#D4C4E8" fill-opacity=".12"/>
<circle cx="412" cy="76" r="1" fill="#D4C4E8" fill-opacity=".12"/>
<circle cx="412" cy="104" r="1" fill="#D4C4E8" fill-opacity=".12"/>
<circle cx="412" cy="132" r="1" fill="#D4C4E8" fill-opacity=".12"/>
<circle cx="412" cy="160" r="1" fill="#D4C4E8" fill-opacity=".12"/>
<circle cx="412" cy="188" r="1" fill="#D4C4E8" fill-opacity=".12"/>
<circle cx="412" cy="216" r="1" fill="#D4C4E8" fill-opacity=".12"/>
<circle cx="412" cy="244" r="1" fill="#D4C4E8" fill-opacity=".12"/>
<circle cx="412" cy="272" r="1" fill="#D4C4E8" fill-opacity=".12"/>
<circle cx="412" cy="300" r="1" fill="#D4C4E8" fill-opacity=".12"/>
<circle cx="412" cy="328" r="1" fill="#D4C4E8" fill-opacity=".12"/>
<circle cx="412" cy="356" r="1" fill="#D4C4E8" fill-opacity=".12"/>
<circle cx="412" cy="384" r="1" fill="#D4C4E8" fill-opacity=".12"/>
<circle cx="412" cy="412" r="1" fill="#D4C4E8" fill-opacity=".12"/>
<circle cx="412" cy="440" r="1" fill="#D4C4E8" fill-opacity=".12"/>
<circle cx="440" cy="20" r="1" fill="#D4C4E8" fill-opacity=".12"/>
<circle cx="440" cy="48" r="1" fill="#D4C4E8" fill-opacity=".12"/>
<circle cx="440" cy="76" r="1" fill="#D4C4E8" fill-opacity=".12"/>
<circle cx="440" cy="104" r="1" fill="#D4C4E8" fill-opacity=".12"/>
<circle cx="440" cy="132" r="1" fill="#D4C4E8" fill-opacity=".12"/>
<circle cx="440" cy="160" r="1" fill="#D4C4E8" fill-opacity=".12"/>
<circle cx="440" cy="188" r="1" fill="#D4C4E8" fill-opacity=".12"/>
<circle cx="440" cy="216" r="1" fill="#D4C4E8" fill-opacity=".12"/>
<circle cx="440" cy="244" r="1" fill="#D4C4E8" fill-opacity=".12"/>
<circle cx="440" cy="272" r="1" fill="#D4C4E8" fill-opacity=".12"/>
<circle cx="440" cy="300" r="1" fill="#D4C4E8" fill-opacity=".12"/>
<circle cx="440" cy="328" r="1" fill="#D4C4E8" fill-opacity=".12"/>
<circle cx="440" cy="356" r="1" fill="#D4C4E8" fill-opacity=".12"/>
<circle cx="440" cy="384" r="1" fill="#D4C4E8" fill-opacity=".12"/>
<circle cx="440" cy="412" r="1" fill="#D4C4E8" fill-opacity=".12"/>
<circle cx="440" cy="440" r="1" fill="#D4C4E8" fill-opacity=".12"/>
<circle cx="468" cy="20" r="1" fill="#D4C4E8" fill-opacity=".12"/>
<circle cx="468" cy="48" r="1" fill="#D4C4E8" fill-opacity=".12"/>
<circle cx="468" cy="76" r="1" fill="#D4C4E8" fill-opacity=".12"/>
<circle cx="468" cy="104" r="1" fill="#D4C4E8" fill-opacity=".12"/>
<circle cx="468" cy="132" r="1" fill="#D4C4E8" fill-opacity=".12"/>
<circle cx="468" cy="160" r="1" fill="#D4C4E8" fill-opacity=".12"/>
<circle cx="468" cy="188" r="1" fill="#D4C4E8" fill-opacity=".12"/>
<circle cx="468" cy="216" r="1" fill="#D4C4E8" fill-opacity=".12"/>
<circle cx="468" cy="244" r="1" fill="#D4C4E8" fill-opacity=".12"/>
<circle cx="468" cy="272" r="1" fill="#D4C4E8" fill-opacity=".12"/>
<circle cx="468" cy="300" r="1" fill="#D4C4E8" fill-opacity=".12"/>
<circle cx="468" cy="328" r="1" fill="#D4C4E8" fill-opacity=".12"/>
<circle cx="468" cy="356" r="1" fill="#D4C4E8" fill-opacity=".12"/>
<circle cx="468" cy="384" r="1" fill="#D4C4E8" fill-opacity=".12"/>
<circle cx="468" cy="412" r="1" fill="#D4C4E8" fill-opacity=".12"/>
<circle cx="468" cy="440" r="1" fill="#D4C4E8" fill-opacity=".12"/>
<circle cx="496" cy="20" r="1" fill="#D4C4E8" fill-opacity=".12"/>
<circle cx="496" cy="48" r="1" fill="#D4C4E8" fill-opacity=".12"/>
<circle cx="496" cy="76" r="1" fill="#D4C4E8" fill-opacity=".12"/>
<circle cx="496" cy="104" r="1" fill="#D4C4E8" fill-opacity=".12"/>
<circle cx="496" cy="132" r="1" fill="#D4C4E8" fill-opacity=".12"/>
<circle cx="496" cy="160" r="1" fill="#D4C4E8" fill-opacity=".12"/>
<circle cx="496" cy="188" r="1" fill="#D4C4E8" fill-opacity=".12"/>
<circle cx="496" cy="216" r="1" fill="#D4C4E8" fill-opacity=".12"/>
<circle cx="496" cy="244" r="1" fill="#D4C4E8" fill-opacity=".12"/>
<circle cx="496" cy="272" r="1" fill="#D4C4E8" fill-opacity=".12"/>
<circle cx="496" cy="300" r="1" fill="#D4C4E8" fill-opacity=".12"/>
<circle cx="496" cy="328" r="1" fill="#D4C4E8" fill-opacity=".12"/>
<circle cx="496" cy="356" r="1" fill="#D4C4E8" fill-opacity=".12"/>
<circle cx="496" cy="384" r="1" fill="#D4C4E8" fill-opacity=".12"/>
<circle cx="496" cy="412" r="1" fill="#D4C4E8" fill-opacity=".12"/>
<circle cx="496" cy="440" r="1" fill="#D4C4E8" fill-opacity=".12"/>
<circle cx="260" cy="210" r="190" fill="url(#g2)"/>
<circle cx="260" cy="210" r="70" stroke="#D4C4E8" stroke-opacity="0.40" stroke-width="1.5" stroke-dasharray="none"/>
<g class="spin"><circle cx="260" cy="210" r="105" stroke="#D4C4E8" stroke-opacity="0.32" stroke-width="1.5" stroke-dasharray="4 7"/><circle cx="365" cy="210" r="3" fill="#E8A6D0" class="blip"/></g>
<circle cx="260" cy="210" r="140" stroke="#D4C4E8" stroke-opacity="0.24" stroke-width="1.5" stroke-dasharray="none"/>
<g class="spin-r"><circle cx="260" cy="210" r="175" stroke="#D4C4E8" stroke-opacity="0.16" stroke-width="1.5" stroke-dasharray="4 7"/><circle cx="260" cy="35" r="2.5" fill="#D4C4E8" class="blip"/></g>
<g class="sweep"><path d="M260 210 L260.0 70.0 A140 140 0 0 1 367.2 120.0 Z" fill="url(#sw)" opacity=".6"/><line x1="260" y1="210" x2="367.2" y2="120.0" stroke="#EAE6F2" stroke-opacity=".7" stroke-width="1.4"/></g><circle class="ripple a" cx="260" cy="210" r="55" stroke="#D4C4E8" stroke-width="1.2"/><circle class="ripple b" cx="260" cy="210" r="55" stroke="#D4C4E8" stroke-width="1.2"/><circle class="ripple c" cx="260" cy="210" r="55" stroke="#D4C4E8" stroke-width="1.2"/><g class="shield"><g transform="translate(204 150) scale(1.75)"><path d="M32 4 8 13v17c0 15 10.5 26.5 24 30 13.5-3.5 24-15 24-30V13L32 4z" fill="url(#sh2)"/><g stroke="#1D1526" stroke-width="3.2" stroke-linecap="round"><line x1="20" y1="30" x2="20" y2="36"/><line x1="26" y1="24" x2="26" y2="42"/><line x1="32" y1="18" x2="32" y2="46"/><line x1="38" y1="24" x2="38" y2="42"/><line x1="44" y1="30" x2="44" y2="36"/></g></g></g>
<g class="orbit">
<g class="node"><g class="node-glow"><g opacity="1"><circle cx="260.0" cy="70.0" r="22" fill="#36294A"/><circle cx="260.0" cy="70.0" r="22" fill="none" stroke="#D4C4E8" stroke-opacity=".35"/><g transform="translate(246.36 56.36) scale(1.1366666666666667)" fill="none" stroke="#D4C4E8" stroke-width="1.35" stroke-linecap="round" stroke-linejoin="round"><path d="M7 19v-6a5 5 0 0 1 10 0v6"/><path d="M5 19h14v2H5z"/><path d="M12 3v2M4.2 6.2l1.4 1.4M19.8 6.2l-1.4 1.4M2 12h2M20 12h2"/></g></g></g></g>
<g class="node"><g class="node-glow"><g opacity="1"><circle cx="381.2" cy="140.0" r="22" fill="#36294A"/><circle cx="381.2" cy="140.0" r="22" fill="none" stroke="#D4C4E8" stroke-opacity=".35"/><g transform="translate(367.56 126.36) scale(1.1366666666666667)" fill="none" stroke="#D4C4E8" stroke-width="1.35" stroke-linecap="round" stroke-linejoin="round"><path d="m12 2 1.8 5.2L19 4l-2.2 5.2L22 12l-5.2 1.8L19 20l-5.2-2.2L12 22l-1.8-4.2L5 20l2.2-6.2L2 12l5.2-2.8L5 4l5.2 3.2L12 2Z"/><circle cx="12" cy="12" r="2.2"/></g></g></g></g>
<g class="node"><g class="node-glow"><g opacity="1"><circle cx="381.2" cy="280.0" r="22" fill="#36294A"/><circle cx="381.2" cy="280.0" r="22" fill="none" stroke="#D4C4E8" stroke-opacity=".35"/><g transform="translate(367.56 266.36) scale(1.1366666666666667)" fill="none" stroke="#D4C4E8" stroke-width="1.35" stroke-linecap="round" stroke-linejoin="round"><ellipse cx="12" cy="16" rx="4.2" ry="3.6"/><circle cx="6" cy="10.5" r="1.8"/><circle cx="18" cy="10.5" r="1.8"/><circle cx="9.3" cy="6" r="1.8"/><circle cx="14.7" cy="6" r="1.8"/></g></g></g></g>
<g class="node"><g class="node-glow"><g opacity="1"><circle cx="260.0" cy="350.0" r="22" fill="#36294A"/><circle cx="260.0" cy="350.0" r="22" fill="none" stroke="#D4C4E8" stroke-opacity=".35"/><g transform="translate(246.36 336.36) scale(1.1366666666666667)" fill="none" stroke="#D4C4E8" stroke-width="1.35" stroke-linecap="round" stroke-linejoin="round"><circle cx="12" cy="12" r="9"/><circle cx="12" cy="12" r="4"/><path d="m5.6 5.6 3.6 3.6M14.8 14.8l3.6 3.6M18.4 5.6l-3.6 3.6M9.2 14.8l-3.6 3.6"/></g></g></g></g>
<g class="node"><g class="node-glow"><g opacity="1"><circle cx="138.8" cy="280.0" r="22" fill="#36294A"/><circle cx="138.8" cy="280.0" r="22" fill="none" stroke="#D4C4E8" stroke-opacity=".35"/><g transform="translate(125.16000000000001 266.36) scale(1.1366666666666667)" fill="none" stroke="#D4C4E8" stroke-width="1.35" stroke-linecap="round" stroke-linejoin="round"><rect x="4" y="3" width="16" height="18" rx="1.5"/><path d="m12 3-1.5 5 3 3-2 4 1.5 6"/><path d="m10.5 8-6.5 2M13.5 11l6.5-1.5M11.5 15 4 17"/></g></g></g></g>
<g class="node"><g class="node-glow"><g opacity="1"><circle cx="138.8" cy="140.0" r="22" fill="#36294A"/><circle cx="138.8" cy="140.0" r="22" fill="none" stroke="#D4C4E8" stroke-opacity=".35"/><g transform="translate(125.16000000000001 126.36) scale(1.1366666666666667)" fill="none" stroke="#D4C4E8" stroke-width="1.35" stroke-linecap="round" stroke-linejoin="round"><circle cx="12" cy="12" r="3.2"/><path d="M12 2.5v3M12 18.5v3M2.5 12h3M18.5 12h3M5.3 5.3l2.1 2.1M16.6 16.6l2.1 2.1M18.7 5.3l-2.1 2.1M7.4 16.6l-2.1 2.1"/></g></g></g></g>
<g class="node"><g class="node-glow"><g opacity="0.75"><circle cx="347.5" cy="58.4" r="17" fill="#36294A"/><circle cx="347.5" cy="58.4" r="17" fill="none" stroke="#D4C4E8" stroke-opacity=".35"/><g transform="translate(336.96 47.86) scale(0.8783333333333334)" fill="none" stroke="#D4C4E8" stroke-width="1.74" stroke-linecap="round" stroke-linejoin="round"><path d="M3 16v-4l2.5-5h9L17 12v4"/><path d="M3 16h14"/><circle cx="6.5" cy="17.5" r="1.5"/><circle cx="13.5" cy="17.5" r="1.5"/><path d="M19.5 8.5c1 1 1 5 0 6M21.5 6.5c2 2 2 9 0 11"/></g></g></g></g>
<g class="node"><g class="node-glow"><g opacity="0.75"><circle cx="172.5" cy="361.6" r="17" fill="#36294A"/><circle cx="172.5" cy="361.6" r="17" fill="none" stroke="#D4C4E8" stroke-opacity=".35"/><g transform="translate(161.96 351.06) scale(0.8783333333333334)" fill="none" stroke="#D4C4E8" stroke-width="1.74" stroke-linecap="round" stroke-linejoin="round"><circle cx="12" cy="12" r="9"/><path d="M8 9.5h.01M16 9.5h.01"/><ellipse cx="12" cy="15.5" rx="2.2" ry="2.8"/></g></g></g></g>
</g>
<polyline class="wave" points="0,415.0 4,418.4 8,420.1 12,418.3 16,413.6 20,409.2 24,408.3 28,412.1 32,418.3 36,422.6 40,421.8 44,416.5 48,410.2 52,407.3 56,409.6 60,415.2 64,420.2 68,421.3 72,418.3 76,413.7 80,410.8 84,411.1 88,413.7 92,416.4 96,417.4 100,416.6 104,415.2 108,414.3 112,414.3 116,414.7 120,415.0 124,415.0 128,415.0 132,415.0 136,414.9 140,414.5 144,414.1 148,414.5 152,416.1 156,418.1 160,418.5 164,415.7 168,410.3 172,406.3 176,407.9 180,416.3 184,426.9 188,431.7 192,424.7 196,408.1 200,392.8 204,391.0 208,406.5 212,430.5 216,446.0 220,441.0 224,417.8 228,392.2 232,382.4 236,394.5 240,419.0 244,438.2 248,439.9 252,425.7 256,408.1 260,399.3 264,402.6 268,412.1 272,419.5 276,420.8 280,418.0 284,415.1 288,414.2 292,414.7 296,415.0 300,415.0 304,415.4 308,416.1 312,415.9 316,413.8 320,411.0 324,410.2 328,413.5 332,419.3 336,423.5 340,422.1 344,415.2 348,407.3 352,404.2 356,408.4 360,417.3 364,424.7 368,425.6 372,419.5 376,410.6 380,405.1 384,406.4 388,413.1 392,420.4 396,423.5 400,420.8 404,414.9 408,409.9 412,408.9 416,411.9 420,416.1 424,418.7 428,418.4 432,416.1 436,414.0 440,413.2 444,413.8 448,414.8 452,415.4 456,415.3 460,415.1 464,415.0 468,415.0 472,414.9 476,414.9 480,415.1 484,415.7 488,416.1 492,415.6 496,414.0 500,412.4 504,412.4 508,414.5 512,417.8 516,420.0 520,418.8" stroke="url(#wv)" stroke-width="2" fill="none"/>
</svg>